<svg width="112" height="112" xmlns="http://www.w3.org/2000/svg" xmlns:xlink="http://www.w3.org/1999/xlink"><defs><path d="M37.5 75C58.21 75 75 58.21 75 37.5S58.21 0 37.5 0 0 16.79 0 37.5 16.79 75 37.5 75z" id="a"/></defs><g fill="none" fill-rule="evenodd"><path d="M56 111c30.375 0 55-24.623 55-55 0-30.375-24.625-55-55-55S1 25.625 1 56c0 30.377 24.625 55 55 55z" stroke="#C1C1C1"/><path d="M56 110.71c30.215 0 54.71-24.495 54.71-54.71S86.216 1.29 56 1.29 1.29 25.784 1.29 56 25.784 110.71 56 110.71zM111 56c0 30.376-24.624 55-55 55S1 86.376 1 56 25.624 1 56 1s55 24.624 55 55z" fill-opacity=".86" fill="#000"/><path d="M83.027 103.597c-7.974 4.537-17.198 7.128-27.027 7.128-9.832 0-19.059-2.592-27.032-7.131l1.618-2.805-.656-.38-1.62 2.804a54.986 54.986 0 0 1-19.522-19.52l2.807-1.622-.38-.655-2.806 1.62C3.87 75.06 1.275 65.832 1.275 56c0-9.826 2.59-19.046 7.124-27.018l2.8 1.618.38-.657-2.8-1.617A55.007 55.007 0 0 1 28.275 8.807l1.644 2.846.656-.378-1.643-2.847-.582.336C36.465 4.004 45.913 1.275 56 1.275c9.83 0 19.053 2.592 27.025 7.128l-1.616 2.8.657.38 1.616-2.8a55.007 55.007 0 0 1 19.531 19.527l-2.81 1.623.379.657 2.81-1.622c4.54 7.973 7.133 17.2 7.133 27.032 0 9.833-2.594 19.062-7.134 27.037l-2.808-1.621-.38.657 2.807 1.62a54.987 54.987 0 0 1-19.528 19.525l-1.625-2.816-.657.38 1.627 2.815zM56 111c30.376 0 55-24.624 55-55S86.376 1 56 1 1 25.624 1 56s24.624 55 55 55z" fill-opacity=".75" fill="#FFF"/><path fill="#FFF" fill-rule="nonzero" d="M60 15h-2.31l-3.38-7.214V15H52V4h2.31l3.387 7.223V4H60zM11.913 54.26 5 53.211V51l11 1.967v2.24L9.519 56.5 16 57.776v2.25L5 62v-2.226l6.906-1.04L5 57.433v-1.875zM101.76 59.196v-4.383h-2.917V60H97v-8h11v7.983h-1.852v-5.17h-2.597v4.383zM57.513 105.044c0-.184-.02-.352-.058-.5a.962.962 0 0 0-.252-.412 2.045 2.045 0 0 0-.536-.38 7.06 7.06 0 0 0-.923-.391 12.179 12.179 0 0 1-1.315-.521 5.158 5.158 0 0 1-1.097-.692 3.347 3.347 0 0 1-.754-.926c-.186-.354-.277-.764-.277-1.23 0-.446.094-.85.285-1.22.19-.373.456-.688.796-.947.345-.26.754-.461 1.224-.604.472-.146.995-.221 1.567-.221.586 0 1.113.085 1.583.25.475.162.876.39 1.205.684.337.29.594.637.771 1.045.18.402.268.846.268 1.331h-2.454c0-.225-.028-.431-.083-.618a1.194 1.194 0 0 0-.251-.485 1.069 1.069 0 0 0-.437-.315 1.582 1.582 0 0 0-.647-.12c-.232 0-.436.032-.61.095a1.146 1.146 0 0 0-.417.267.997.997 0 0 0-.252.388 1.357 1.357 0 0 0-.086.485c0 .177.042.337.128.478.088.143.212.276.367.397.163.124.354.238.578.347.229.107.48.214.754.316a9.6 9.6 0 0 1 1.492.603c.426.221.78.47 1.064.75.285.279.498.596.636.948.14.35.21.742.21 1.183 0 .47-.089.89-.268 1.259a2.502 2.502 0 0 1-.755.934c-.323.25-.715.443-1.18.58a5.675 5.675 0 0 1-1.567.198 5.883 5.883 0 0 1-1.55-.206 4.172 4.172 0 0 1-1.348-.645 3.37 3.37 0 0 1-.965-1.096c-.24-.442-.359-.965-.359-1.574h2.47c0 .322.036.599.111.824.072.226.18.408.326.55.15.14.334.238.553.302.218.06.472.09.762.09.235 0 .432-.03.595-.09.168-.064.3-.146.403-.25a.952.952 0 0 0 .227-.381 1.67 1.67 0 0 0 .066-.48z"/><g opacity=".8" fill="#FFF" fill-rule="nonzero"><path d="m30.874 16.9.5-.266c.19-.1.29-.234.3-.401.014-.17-.043-.358-.17-.562a1.146 1.146 0 0 0-.186-.226.64.64 0 0 0-.218-.144.532.532 0 0 0-.486.022.474.474 0 0 0-.254.325.631.631 0 0 0 .003.227c.016.082.05.164.103.25l-1.03.547a1.445 1.445 0 0 1-.226-.609 1.324 1.324 0 0 1 .054-.587c.061-.186.16-.36.3-.518.143-.16.318-.297.528-.409.23-.122.46-.204.689-.246.228-.044.447-.042.657.004.212.042.41.131.595.266.184.13.348.31.493.538.067.108.117.22.148.34.036.116.052.235.05.359a1.284 1.284 0 0 1-.222.713c.311-.035.59.012.834.145.248.132.456.33.624.599.142.228.228.454.255.678.03.222.01.434-.059.635-.07.197-.184.38-.343.552a2.26 2.26 0 0 1-.586.436c-.194.104-.4.177-.62.219-.216.04-.434.042-.65.002a1.72 1.72 0 0 1-.616-.256 1.77 1.77 0 0 1-.523-.556l1.03-.547a.914.914 0 0 0 .426.363.67.67 0 0 0 .244.04.561.561 0 0 0 .246-.067.597.597 0 0 0 .21-.175.49.49 0 0 0 .095-.228.662.662 0 0 0-.014-.27 1.055 1.055 0 0 0-.133-.298c-.16-.257-.33-.412-.511-.465-.178-.058-.364-.034-.559.068l-.499.266-.48-.764zM34.647 14.894l.5-.264c.187-.1.288-.236.3-.402.012-.171-.045-.359-.172-.561a1.093 1.093 0 0 0-.186-.228.66.66 0 0 0-.456-.192.553.553 0 0 0-.414.208.435.435 0 0 0-.085.188.59.59 0 0 0 .002.228c.014.08.05.164.103.248l-1.032.549a1.52 1.52 0 0 1-.226-.61 1.294 1.294 0 0 1 .056-.586c.06-.188.16-.36.3-.518a1.82 1.82 0 0 1 .526-.409c.23-.124.461-.206.69-.246a1.595 1.595 0 0 1 1.25.268c.187.131.351.31.494.538a1.295 1.295 0 0 1-.024 1.412c.313-.035.59.014.836.145.246.132.454.332.622.6.143.228.228.453.256.677.03.223.01.434-.06.635a1.58 1.58 0 0 1-.34.554 2.295 2.295 0 0 1-1.207.653 1.73 1.73 0 0 1-.65.002 1.734 1.734 0 0 1-.615-.254 1.784 1.784 0 0 1-.525-.558l1.03-.547c.057.09.122.164.196.226.073.06.15.106.232.137.079.03.16.042.243.04a.553.553 0 0 0 .244-.067.621.621 0 0 0 .212-.174.515.515 0 0 0 .093-.23.63.63 0 0 0-.014-.27 1.06 1.06 0 0 0-.13-.295c-.163-.257-.334-.412-.512-.467a.7.7 0 0 0-.558.07l-.5.264-.479-.764z"/></g><g opacity=".8" fill="#FFF" fill-rule="nonzero"><path d="m14.434 35.686.316-.513c.122-.196.138-.377.048-.544-.09-.17-.257-.323-.5-.454a1.329 1.329 0 0 0-.313-.124c-.103-.028-.2-.038-.292-.028a.57.57 0 0 0-.452.27.567.567 0 0 0-.076.22.51.51 0 0 0 .033.226.68.68 0 0 0 .137.218.879.879 0 0 0 .246.19l-.654 1.058a1.824 1.824 0 0 1-.58-.472 1.542 1.542 0 0 1-.323-1.252c.04-.228.125-.45.258-.664.146-.238.316-.435.51-.592a1.713 1.713 0 0 1 1.354-.385c.255.033.52.12.792.269a1.594 1.594 0 0 1 .608.572c.07.116.125.244.164.382.039.133.054.273.05.422.277-.196.571-.291.883-.29.314 0 .63.088.95.26.273.148.49.32.65.524.162.2.269.416.324.644.052.228.052.464.004.71a2.279 2.279 0 0 1-.759 1.252 1.77 1.77 0 0 1-.62.336c-.226.069-.473.093-.736.07a2.182 2.182 0 0 1-.833-.268l.654-1.06c.107.059.213.097.323.12.104.02.204.024.3.012a.693.693 0 0 0 .258-.085.576.576 0 0 0 .192-.192.612.612 0 0 0 .096-.277.53.53 0 0 0-.046-.27.793.793 0 0 0-.175-.253 1.342 1.342 0 0 0-.303-.22c-.307-.164-.562-.227-.765-.187a.717.717 0 0 0-.493.354l-.316.513-.914-.492zM19.23 30.137c.438.236.789.478 1.057.725.266.246.456.494.574.743.113.248.157.494.133.74a1.62 1.62 0 0 1-.249.715 1.692 1.692 0 0 1-1.295.824c-.29.029-.615 0-.977-.087a5.428 5.428 0 0 1-1.202-.495l-1.018-.547a5.165 5.165 0 0 1-1.051-.723c-.269-.246-.458-.495-.572-.74a1.366 1.366 0 0 1-.137-.74 1.65 1.65 0 0 1 .25-.716c.145-.232.323-.42.542-.562.213-.144.464-.232.754-.263a2.8 2.8 0 0 1 .975.092c.362.09.76.25 1.197.484l1.018.55zm-1.841.425a4.957 4.957 0 0 0-.67-.309 2.055 2.055 0 0 0-.488-.126.69.69 0 0 0-.338.039.45.45 0 0 0-.207.177.397.397 0 0 0-.061.256.554.554 0 0 0 .133.291c.08.104.2.216.36.334.159.12.366.248.623.387l1.34.72c.259.14.486.247.68.318.191.069.355.112.492.126a.693.693 0 0 0 .34-.04c.09-.04.16-.1.21-.182a.394.394 0 0 0 .061-.252.583.583 0 0 0-.135-.293 1.92 1.92 0 0 0-.367-.332 5.044 5.044 0 0 0-.634-.39l-1.34-.724z"/></g><g opacity=".8"><path d="m19.054 78.459 1.691 2.972-.682.4-2.491-.362a5.081 5.081 0 0 0-.497-.032 3.032 3.032 0 0 0-.388.019 1.56 1.56 0 0 0-.301.066 1.21 1.21 0 0 0-.24.107c-.221.13-.372.27-.452.423a.426.426 0 0 0 .002.443c.05.086.115.15.195.19.078.04.167.06.266.06a.931.931 0 0 0 .32-.056c.113-.04.23-.094.35-.164l.559.984a2.227 2.227 0 0 1-.695.27 1.855 1.855 0 0 1-.692.001 1.64 1.64 0 0 1-.623-.271 1.718 1.718 0 0 1-.493-.562 1.983 1.983 0 0 1-.249-.667 1.398 1.398 0 0 1 .023-.611 1.34 1.34 0 0 1 .29-.53c.14-.164.32-.31.539-.439.165-.098.34-.17.522-.219.18-.047.37-.073.573-.08.2-.01.414-.004.641.02.225.027.465.062.723.11l1.281.113-.976-1.716.804-.47zM15.35 76.357l-.245-.43.803-.469.245.43 1.077-.63.557.98-1.076.63.952 1.67-.6.411-4.249.205-.561-.983 3.097-1.814zm.993 1.744-.435-.764-1.664.975h.05l2.049-.211z" fill="#FFF" fill-rule="nonzero"/><path d="m19.213 78.365-.093-.164-.16.094-.803.471-.161.094.093.163.797 1.402-.916-.081c-.259-.047-.5-.083-.727-.11a4.27 4.27 0 0 0-.67-.022 2.786 2.786 0 0 0-.611.087 2.278 2.278 0 0 0-.57.237 2.241 2.241 0 0 0-.585.479c-.158.183-.27.384-.329.605-.061.219-.069.45-.028.69.04.241.132.484.272.731a1.802 1.802 0 0 0 1.242.924h.002c.245.047.498.047.758-.002h.002a2.4 2.4 0 0 0 .753-.29l.162-.095-.093-.164-.562-.983-.093-.163-.16.095a1.73 1.73 0 0 1-.316.147.75.75 0 0 1-.256.047h-.004a.383.383 0 0 1-.18-.04l-.006-.002a.28.28 0 0 1-.115-.115.244.244 0 0 1 0-.258l.002-.002c.057-.11.176-.228.38-.347a1.24 1.24 0 0 1 .47-.149c.105-.013.226-.02.366-.018.135.002.295.011.475.03l2.486.362.065.01.056-.033.682-.4.162-.094-.093-.164-1.694-2.972zm-4.201-2.6-.16.095.093.162.15.267-2.935 1.718-.16.094.093.164.56.984.057.1.114-.006 4.248-.206.052-.001.042-.03.601-.411.143-.098-.087-.153-.857-1.506.914-.537.162-.095-.093-.162-.558-.98-.093-.164-.161.094-.915.536-.152-.266-.093-.164-.162.094-.803.471zm.069 2.275.76-.444.197.346-.957.098z" stroke-opacity=".6" stroke="#000" stroke-width=".2"/></g><g opacity=".75"><path fill="#FFF" fill-rule="nonzero" d="m94.991 77.222.606-.968 4.115 2.19.197-1.157.872.466-.33 2.237-.065.102zM92.276 81.556l1.834-2.926.738.394 1.013 2.33c.082.172.163.32.24.447.078.126.154.235.229.326.074.091.149.167.221.226.075.062.151.114.23.154.24.128.45.19.636.184a.46.46 0 0 0 .409-.219.432.432 0 0 0 .07-.263.535.535 0 0 0-.089-.26.985.985 0 0 0-.225-.247 2.134 2.134 0 0 0-.34-.222l.608-.969c.243.13.45.286.624.47.169.183.296.382.376.595.079.215.107.44.087.674a1.64 1.64 0 0 1-.254.703c-.14.226-.302.408-.483.541-.18.14-.37.232-.576.282-.203.049-.42.052-.646.01a2.318 2.318 0 0 1-.698-.249 2.315 2.315 0 0 1-.486-.345 2.625 2.625 0 0 1-.384-.455 4.053 4.053 0 0 1-.328-.565 10.514 10.514 0 0 1-.29-.677l-.59-1.164-1.057 1.689-.87-.464z"/><path d="m94.816 77.13-.1.161.175.093 5.394 2.87.176.092.1-.161.063-.102.02-.032.006-.035.332-2.239.018-.122-.119-.063-.871-.464-.256-.136-.044.268-.151.888-3.861-2.055-.173-.093-.1.161-.609.969zm-2.715 4.333-.101.161.175.093.87.462.175.093.1-.16.864-1.38.42.833c.097.247.196.473.293.68l.002.003c.102.215.217.412.34.588.123.182.262.343.413.486v.002c.157.144.332.269.527.374.254.134.505.225.76.27a1.695 1.695 0 0 0 1.389-.33c.202-.151.38-.351.53-.593.157-.252.252-.512.278-.779.024-.26-.008-.51-.095-.75l-.002-.001a2.004 2.004 0 0 0-.412-.655l-.002-.002a2.588 2.588 0 0 0-.675-.506l-.175-.093-.1.16-.606.968-.101.161.173.093c.119.063.222.13.308.2a.802.802 0 0 1 .183.199v.002c.043.065.06.122.063.176v.006a.25.25 0 0 1-.045.155c-.054.086-.124.125-.237.127h-.002c-.133.003-.308-.041-.53-.158a1.238 1.238 0 0 1-.39-.332 2.698 2.698 0 0 1-.215-.308 4.68 4.68 0 0 1-.23-.427l-1.01-2.326-.027-.06-.06-.03-.739-.394-.175-.093-.1.16-1.834 2.925z" stroke-opacity=".6" stroke="#000" stroke-width=".2"/></g><path d="m78.157 16.39.643.404c.243.153.47.175.682.06.214-.113.403-.328.569-.637.071-.137.122-.27.155-.401.036-.131.046-.257.034-.374a.737.737 0 0 0-.095-.326.695.695 0 0 0-.245-.25.65.65 0 0 0-.273-.098.625.625 0 0 0-.283.039.888.888 0 0 0-.276.176c-.086.08-.166.186-.234.317l-1.327-.839c.16-.306.36-.551.592-.738a1.896 1.896 0 0 1 1.567-.412c.288.05.566.159.834.328.296.187.543.404.742.652.202.246.34.513.419.803.084.293.104.599.061.928-.038.326-.15.663-.334 1.011a1.963 1.963 0 0 1-.317.443c-.117.128-.252.24-.4.335-.148.089-.306.158-.48.209-.168.05-.344.07-.528.064.242.354.362.73.36 1.128 0 .401-.108.805-.324 1.215a2.646 2.646 0 0 1-.656.83c-.253.207-.52.343-.807.413a2.084 2.084 0 0 1-.89.005 2.84 2.84 0 0 1-1.572-.97 2.312 2.312 0 0 1-.419-.79c-.089-.293-.117-.605-.089-.942.03-.343.143-.697.337-1.065l1.327.836a1.54 1.54 0 0 0-.148.412 1.23 1.23 0 0 0-.015.385c.015.12.05.228.107.329.058.1.138.18.24.245.114.072.23.114.347.123a.647.647 0 0 0 .337-.059c.112-.047.219-.123.318-.223.103-.106.192-.234.274-.387.209-.393.285-.719.237-.978-.046-.262-.194-.471-.444-.63l-.643-.404.617-1.167z" opacity=".8" fill="#FFF" fill-rule="nonzero"/><g opacity=".8"><path d="m34.833 95.795 2.914 1.655-.392.67-2.32.914a5.6 5.6 0 0 0-.444.215c-.127.07-.235.14-.325.207a1.305 1.305 0 0 0-.38.41c-.128.216-.19.407-.184.572.004.166.076.29.218.37a.45.45 0 0 0 .263.063.563.563 0 0 0 .258-.08.916.916 0 0 0 .246-.202c.08-.09.153-.191.222-.307l.964.547c-.129.222-.284.41-.467.564-.183.154-.38.267-.593.34a1.63 1.63 0 0 1-.67.078 1.705 1.705 0 0 1-.7-.227 1.941 1.941 0 0 1-.54-.437 1.293 1.293 0 0 1-.28-.52 1.274 1.274 0 0 1-.01-.585c.04-.206.121-.417.247-.63.096-.163.21-.309.343-.438.132-.127.283-.244.453-.35.168-.105.357-.205.564-.294.205-.089.43-.176.674-.263l1.159-.532-1.682-.954.462-.786zM32.111 94.247l.965.55-2.18 3.717 1.15.176-.461.79-2.23-.3-.102-.057z" fill="#FFF" fill-rule="nonzero"/><path d="m34.925 95.637-.16-.091-.093.158-.46.786-.092.156.159.091 1.374.78-.83.382c-.243.087-.47.175-.677.264h-.002c-.214.094-.41.196-.586.31-.18.11-.342.234-.484.37v.002c-.146.14-.27.3-.373.476a2.145 2.145 0 0 0-.27.686c-.046.23-.042.451.013.666.055.212.163.41.316.59.152.183.35.34.591.477.252.144.51.23.774.253h.002c.257.022.507-.007.745-.087h.002a2.07 2.07 0 0 0 .652-.373l.002-.002c.198-.17.366-.375.506-.611l.092-.156-.16-.091-.965-.55-.16-.09-.093.158c-.063.107-.13.198-.2.278a.765.765 0 0 1-.197.164l-.002.001a.382.382 0 0 1-.176.055l-.005.002a.286.286 0 0 1-.155-.04.228.228 0 0 1-.126-.215v-.003c-.004-.12.04-.277.159-.477.035-.06.078-.12.131-.178a1.42 1.42 0 0 1 .2-.177c.083-.061.183-.125.305-.194.118-.064.258-.133.425-.206l2.317-.913.059-.023.031-.055.394-.67.092-.155-.16-.091-2.915-1.657zm-2.721-1.546L32.045 94l-.092.156-2.86 4.876-.093.157.16.09.102.059.032.018.037.005 2.228.299.124.016.06-.105.465-.79.134-.229-.267-.042-.884-.134 2.046-3.488.092-.159-.16-.09-.965-.548z" stroke-opacity=".6" stroke="#000" stroke-width=".2"/></g><g opacity=".8"><path fill="#FFF" fill-rule="nonzero" d="m79.143 92.867 1.027-.596 2.323 4.048.779-.972.492.859-1.468 1.905-.108.063zM79.039 96.402l1.285 2.846-2.55 1.48-.506-.88 1.712-.995-.557-1.19c-.02.036-.041.078-.07.123a1.247 1.247 0 0 1-.244.297.921.921 0 0 1-.184.137c-.218.127-.437.2-.651.218a1.28 1.28 0 0 1-.624-.103 1.84 1.84 0 0 1-.58-.41 3.303 3.303 0 0 1-.524-.701 2.772 2.772 0 0 1-.293-.729 1.961 1.961 0 0 1-.038-.73 1.637 1.637 0 0 1 .854-1.209 1.88 1.88 0 0 1 .626-.23 1.81 1.81 0 0 1 .67.02c.218.052.424.149.621.29.197.14.368.334.51.578l-1.012.588c-.143-.212-.297-.35-.458-.42a.493.493 0 0 0-.459.024.466.466 0 0 0-.2.22.639.639 0 0 0-.046.303c.008.113.036.233.089.362.047.129.112.263.19.402.081.139.166.257.255.357a.95.95 0 0 0 .283.225.624.624 0 0 0 .62-.022.682.682 0 0 0 .28-.283.54.54 0 0 0 .047-.154c.01-.052.015-.101.02-.153l.934-.261z"/><path d="m79.045 92.695-.171.1.098.171 3.046 5.307.099.173.169-.1.108-.063.034-.02.023-.03 1.468-1.906.081-.105-.065-.115-.494-.86-.144-.249-.179.224-.598.746-2.18-3.796L80.24 92l-.169.099-1.027.596zm.173 3.626-.069-.155-.163.046-.935.261-.134.038-.01.14a.998.998 0 0 1-.015.13l-.002.005a.311.311 0 0 1-.028.095.493.493 0 0 1-.203.202.443.443 0 0 1-.218.066h-.006a.413.413 0 0 1-.207-.05l-.003-.002a.734.734 0 0 1-.225-.18 1.806 1.806 0 0 1-.228-.323 2.668 2.668 0 0 1-.18-.374l-.001-.004a.981.981 0 0 1-.073-.3v-.005a.428.428 0 0 1 .028-.208.275.275 0 0 1 .12-.125.296.296 0 0 1 .285-.012c.114.048.24.155.37.347l.104.152.158-.093 1.011-.588.173-.099-.1-.172a2.042 2.042 0 0 0-.565-.638 1.927 1.927 0 0 0-.694-.32h-.002a1.9 1.9 0 0 0-.74-.022h-.004a2.073 2.073 0 0 0-.691.251 1.941 1.941 0 0 0-.661.602 1.84 1.84 0 0 0-.29.75c-.037.264-.023.533.042.807.065.269.17.528.313.78.169.293.352.54.555.742.198.202.413.353.643.452.23.099.47.138.718.119.248-.022.492-.105.733-.246a1.16 1.16 0 0 0 .216-.16c.057-.05.108-.103.153-.16l.331.704-1.555.903-.169.1.099.17.505.88.099.173.169-.099 2.55-1.481.156-.091-.075-.163-1.285-2.845z" stroke-opacity=".6" stroke="#000" stroke-width=".2"/></g><path d="m99.632 32.241-1.187.72-.04-.07a2.338 2.338 0 0 0-.544-.675 1.705 1.705 0 0 0-.668-.352 2.068 2.068 0 0 0-.77-.039c-.271.036-.555.123-.853.257a1.682 1.682 0 0 1 1.163.855c.165.298.246.597.238.901a2.026 2.026 0 0 1-.219.875 2.893 2.893 0 0 1-.59.807 4.529 4.529 0 0 1-.88.687c-.352.212-.707.36-1.066.44-.36.082-.7.093-1.028.04a2.228 2.228 0 0 1-.909-.369 2.366 2.366 0 0 1-.692-.79 2.375 2.375 0 0 1-.127-2.122c.146-.35.365-.685.657-1.006a5.032 5.032 0 0 1 1.082-.863l.554-.337a6.628 6.628 0 0 1 1.723-.76c.565-.15 1.098-.195 1.598-.131.503.064.965.24 1.382.528.419.284.776.69 1.065 1.209l.111.195zm-4.31.947a.742.742 0 0 0-.428-.363 1.155 1.155 0 0 0-.57-.025l-.506.307c-.508.307-.846.609-1.02.902-.172.293-.194.553-.064.782a.623.623 0 0 0 .27.262.871.871 0 0 0 .408.076c.152-.003.32-.034.495-.095.182-.059.363-.146.552-.26.192-.117.354-.243.492-.377.14-.134.249-.274.325-.416a.987.987 0 0 0 .127-.413.658.658 0 0 0-.081-.38z" opacity=".8" fill="#FFF" fill-rule="nonzero"/><g transform="translate(18.983 18.931)"><use stroke="#979797" stroke-width=".3" xlink:href="#a"/></g></g></svg>
